<?xml version="1.0" encoding="UTF-8" standalone="no"?>
<!-- Created with Inkscape (http://www.inkscape.org/) -->

<svg
   width="6mm"
   height="6mm"
   viewBox="0 0 6 6"
   version="1.1"
   id="svg3039"
   inkscape:version="1.1 (c68e22c387, 2021-05-23)"
   sodipodi:docname="BHTinyKnob.svg"
   xmlns:inkscape="http://www.inkscape.org/namespaces/inkscape"
   xmlns:sodipodi="http://sodipodi.sourceforge.net/DTD/sodipodi-0.dtd"
   xmlns:xlink="http://www.w3.org/1999/xlink"
   xmlns="http://www.w3.org/2000/svg"
   xmlns:svg="http://www.w3.org/2000/svg">
  <sodipodi:namedview
     id="namedview3041"
     pagecolor="#292929"
     bordercolor="#666666"
     borderopacity="1.0"
     inkscape:pageshadow="2"
     inkscape:pageopacity="0"
     inkscape:pagecheckerboard="true"
     inkscape:document-units="mm"
     showgrid="false"
     inkscape:showpageshadow="false"
     showborder="true"
     borderlayer="true"
     inkscape:zoom="256"
     inkscape:cx="11.435547"
     inkscape:cy="2.4746094"
     inkscape:window-width="2560"
     inkscape:window-height="1057"
     inkscape:window-x="-8"
     inkscape:window-y="-8"
     inkscape:window-maximized="1"
     inkscape:current-layer="layer1"
     inkscape:snap-object-midpoints="true"
     inkscape:snap-center="true" />
  <defs
     id="defs3036">
    <linearGradient
       inkscape:collect="always"
       id="linearGradient6067">
      <stop
         style="stop-color:#e4572e;stop-opacity:1"
         offset="0"
         id="stop6063" />
      <stop
         style="stop-color:#f2f2f2;stop-opacity:1"
         offset="1"
         id="stop6065" />
    </linearGradient>
    <radialGradient
       inkscape:collect="always"
       xlink:href="#linearGradient6067"
       id="radialGradient2440"
       cx="4.1809974"
       cy="5.6660137"
       fx="4.1809974"
       fy="5.6660137"
       r="2.9000001"
       gradientUnits="userSpaceOnUse"
       gradientTransform="matrix(9.2213612,9.0755462,-8.9514696,9.0952909,23.503242,-78.140295)" />
  </defs>
  <g
     inkscape:label="Layer 1"
     inkscape:groupmode="layer"
     id="layer1">
    <path
       id="path2307"
       style="fill:url(#radialGradient2440);fill-opacity:1;stroke-width:1.13386;stroke-linecap:round"
       d="m 11.90625,0.39648438 c 0,1.00390622 0,2.00781252 0,3.01171872 0.842189,-0.5188179 0.94393,-2.2422215 1.619141,-2.80859372 -0.533917,-0.10784671 -1.07513,-0.17574317 -1.619141,-0.203125 z m 0,3.01171872 C 11.751763,3.5033724 11.573835,3.5591871 11.361328,3.5585938 11.127772,3.5579416 10.935364,3.489112 10.771484,3.375 V 7.1425781 H 11.90625 Z M 10.771484,3.375 c 0,-0.9908854 0,-1.9817708 0,-2.97265625 C 10.25426,0.43423464 9.7399496,0.50276592 9.2324219,0.60742188 9.8735405,1.1844836 9.9818831,2.8251875 10.771484,3.375 Z M 7.8574219,0.96484375 C 6.4846254,1.4198669 5.2154522,2.1420743 4.1230469,3.0898438 c 1.0254485,0.1894755 2.1554949,2.1816225 3.34375,1.5 1.181472,-0.6777317 0.055468,-2.6384812 0.390625,-3.62500005 z m 7.0156251,0.001953 C 15.220842,1.9498483 14.063911,3.9232519 15.248047,4.6113281 16.43238,5.2995196 17.573184,3.3168386 18.599609,3.1328125 17.513031,2.1712683 16.246355,1.4350294 14.873047,0.96679688 Z M 3.1347656,4.0878906 C 2.1845158,5.1708658 1.4571037,6.430563 0.99414062,7.7949219 1.9858348,7.4768402 3.9294473,8.6031605 4.6113281,7.4296875 5.2973222,6.2491354 3.3296227,5.1117673 3.1347656,4.0878906 Z m 16.4511724,0.03125 C 19.400492,5.145567 17.405466,6.277143 18.087891,7.4667969 18.770065,8.6560154 20.75241,7.5044829 21.732422,7.8613281 21.271903,6.4840506 20.542278,5.2120195 19.585938,4.1191406 Z M 0.62304688,9.1777344 C 0.46357393,9.9204934 0.38175391,10.67782 0.37890625,11.4375 0.3930884,12.11238 0.46958531,12.784506 0.60742188,13.445312 1.304251,12.671132 3.5547994,12.675276 3.5585938,11.316406 3.5623794,9.9605562 1.3209059,9.9506542 0.62304688,9.1777344 Z M 22.085938,9.2148438 c -0.678328,0.7919052 -2.962976,0.7774269 -2.966797,2.1464842 -0.0038,1.356451 2.238749,1.364732 2.935547,2.138672 0.159607,-0.743398 0.241428,-1.501385 0.24414,-2.261719 -0.0081,-0.679621 -0.07934,-1.3570177 -0.21289,-2.0234372 z M 3.3378906,14.658203 c -0.8134411,0.0299 -1.772722,0.365818 -2.37304685,0.162109 0.45502305,1.372797 1.17723035,2.64197 2.12500005,3.734376 0.1894755,-1.02545 2.1816225,-2.155497 1.5,-3.34375 -0.2653282,-0.46254 -0.7285132,-0.571961 -1.2519532,-0.552735 z m 15.8281254,0.04297 c -0.458888,0.0051 -0.860447,0.131929 -1.101563,0.546875 -0.685571,1.179824 1.281594,2.316459 1.478516,3.339844 0.95025,-1.082975 1.677662,-2.342673 2.140625,-3.707032 -0.641027,0.205607 -1.678727,-0.189096 -2.517578,-0.179687 z M 6.8808594,17.921875 c -0.983311,0.03015 -1.9290372,1.456677 -2.7929688,1.621094 1.0829752,0.95025 2.3426724,1.677662 3.7070313,2.140625 C 7.4768402,20.691899 8.6031605,18.746334 7.4296875,18.064453 7.2452673,17.957291 7.062906,17.916293 6.8808594,17.921875 Z m 8.8124996,0.02539 c -0.159605,0.005 -0.320535,0.04776 -0.482421,0.140625 -1.18134,0.677655 -0.05583,2.638372 -0.390626,3.625 1.372952,-0.455608 2.642137,-1.178485 3.734376,-2.126953 -0.885704,-0.163803 -1.849485,-1.669986 -2.861329,-1.638672 z m -4.376953,1.171875 c -1.3567331,-0.0038 -1.3662052,2.239249 -2.1406248,2.935547 0.7433976,0.159607 1.5013848,0.241428 2.2617188,0.24414 0.67488,-0.01418 1.347006,-0.09068 2.007812,-0.228516 -0.77418,-0.696828 -0.770036,-2.947377 -2.128906,-2.951171 z"
       transform="scale(0.26458333)"
       sodipodi:nodetypes="cccccsccccccccccsccsccccsccscccccscccccccccscssccssccsscccccscccs" />
  </g>
</svg>
