<?xml version="1.0" encoding="UTF-8" standalone="no"?>
<!-- Created with Inkscape (http://www.inkscape.org/) -->

<svg
   width="5mm"
   height="5mm"
   viewBox="0 0 5 5"
   version="1.1"
   id="svg3039"
   inkscape:version="1.1 (c68e22c387, 2021-05-23)"
   sodipodi:docname="BHTinyKnob_fg.svg"
   xmlns:inkscape="http://www.inkscape.org/namespaces/inkscape"
   xmlns:sodipodi="http://sodipodi.sourceforge.net/DTD/sodipodi-0.dtd"
   xmlns="http://www.w3.org/2000/svg"
   xmlns:svg="http://www.w3.org/2000/svg">
  <sodipodi:namedview
     id="namedview3041"
     pagecolor="#292929"
     bordercolor="#666666"
     borderopacity="1.0"
     inkscape:pageshadow="2"
     inkscape:pageopacity="0"
     inkscape:pagecheckerboard="true"
     inkscape:document-units="mm"
     showgrid="false"
     inkscape:showpageshadow="false"
     showborder="true"
     borderlayer="true"
     inkscape:zoom="22.627417"
     inkscape:cx="8.2422134"
     inkscape:cy="5.3695921"
     inkscape:window-width="1280"
     inkscape:window-height="1057"
     inkscape:window-x="-8"
     inkscape:window-y="-8"
     inkscape:window-maximized="0"
     inkscape:current-layer="layer1" />
  <defs
     id="defs3036" />
  <g
     inkscape:label="Layer 1"
     inkscape:groupmode="layer"
     id="layer1">
    <path
       id="path11784"
       style="fill:#f2f2f2;fill-opacity:1;stroke-width:0.100054;stroke-linecap:round"
       d="m 2.531783,0.10170466 c -0.014088,2.5134e-4 -0.02177,0.002218 -0.033073,0.003101 -0.036668,-0.002923 -0.082626,-0.003355 -0.1514119,0.001034 -0.067564,0.004311 -0.1129531,0.0107118 -0.1488282,0.0180868 -0.036745,0.001696 -0.082171,0.006663 -0.1498616,0.019637 -0.067563,0.0129499 -0.1120033,0.0252169 -0.1467611,0.037207 -0.036094,0.006391 -0.080633,0.017196 -0.1452108,0.0382406 -0.066792,0.0217659 -0.1100939,0.0398292 -0.1431437,0.0563273 -0.03475,0.0109771 -0.077382,0.0264438 -0.1374593,0.054777 -0.061446,0.0289785 -0.1011239,0.0517257 -0.1317749,0.0718302 -0.033492,0.015121 -0.07386,0.0370744 -0.1317749,0.0738973 -0.056577,0.035972 -0.093056,0.0626773 -0.1209228,0.0862996 -0.03151,0.0191499 -0.068833,0.0464993 -0.12247314,0.0909505 -0.0533967,0.0442495 -0.0869474,0.0765208 -0.11162109,0.10386962 -0.0284238,0.022994 -0.0620184,0.0532672 -0.10800376,0.10231935 -0.0472425,0.0503932 -0.0766073,0.0866107 -0.0976685,0.11678872 -0.025386,0.0263798 -0.0548774,0.0610286 -0.0945678,0.11575515 -0.040128,0.05533 -0.0639799,0.094669 -0.081132,0.1271241 -0.0220228,0.029378 -0.0471988,0.067158 -0.0800985,0.127124 -0.032787,0.05976 -0.0516335,0.101591 -0.0645956,0.135909 -0.0181831,0.03191 -0.0384039,0.073757 -0.063562,0.1374593 -0.0251233,0.063614 -0.0384891,0.1069178 -0.0470254,0.1426261 -0.0140263,0.033932 -0.0285206,0.077386 -0.0454753,0.1436605 -0.0169132,0.066113 -0.0244117,0.11132 -0.028422,0.1477946 -0.009687,0.035436 -0.0193723,0.080279 -0.0279053,0.1483114 -0.008517,0.067903 -0.0104369,0.1136642 -0.009819,0.1503784 -0.005147,0.036355 -0.0093637,0.081962 -0.0093018,0.1503784 6.189e-5,0.068405 0.0040906,0.1140346 0.0093018,0.1503785 -5.2858e-4,0.036692 0.001719,0.08267 0.0103353,0.1503784 0.008625,0.067776 0.0176755,0.1123979 0.0273885,0.1477946 0.004057,0.036492 0.0123801,0.082064 0.0294556,0.1483114 0.017073,0.066238 0.0319055,0.1097542 0.045992,0.1436603 0.008619,0.035663 0.0223746,0.079236 0.0475423,0.1426271 0.0253217,0.063779 0.0452984,0.1050586 0.063562,0.1369425 0.0130123,0.034322 0.0321387,0.076065 0.0651123,0.135909 0.0327822,0.059496 0.0575902,0.097283 0.0795817,0.1266074 0.0171838,0.032511 0.0411254,0.071978 0.0816488,0.1276405 0.0400006,0.054945 0.0701015,0.088901 0.0956014,0.1152385 0.021122,0.030108 0.0499418,0.066095 0.0971517,0.116272 0.0470461,0.050002 0.0808288,0.080947 0.10955403,0.1038698 0.0247368,0.027032 0.0577572,0.059643 0.11007079,0.1028359 0.0521898,0.043091 0.0897251,0.06867 0.12092287,0.08785 0.027945,0.023886 0.0649,0.052097 0.1229899,0.088883 0.058599,0.03711 0.099169,0.058886 0.1328084,0.073897 0.030665,0.019963 0.070196,0.04265 0.1312581,0.071313 0.062462,0.02932 0.1058759,0.045102 0.1410767,0.055811 0.032957,0.016041 0.074916,0.033334 0.1395264,0.05426 0.065408,0.021185 0.1100143,0.032 0.1462442,0.03824 0.034712,0.011792 0.078959,0.0235 0.1457276,0.036174 0.067711,0.012852 0.1131137,0.018524 0.1498617,0.020154 0.035909,0.00734 0.081063,0.013369 0.1488281,0.01757 0.068444,0.00424 0.114789,0.00397 0.1514119,0.00103 0.03655,0.00279 0.082594,0.00329 0.1503785,-0.00103 0.068704,-0.00438 0.1143868,-0.011056 0.1503783,-0.018603 0.036613,-0.00181 0.081585,-0.00633 0.1483114,-0.01912 0.0666,-0.012765 0.1105331,-0.025376 0.1452107,-0.037207 0.036238,-0.00629 0.080748,-0.017414 0.1462442,-0.038758 0.064576,-0.021044 0.1071153,-0.038675 0.1400432,-0.054777 0.03515,-0.010791 0.078336,-0.026982 0.1405599,-0.056327 0.06195,-0.029216 0.1016188,-0.052143 0.1322917,-0.072347 0.033446,-0.015138 0.07409,-0.036187 0.1317749,-0.072864 0.058522,-0.037209 0.095599,-0.064842 0.1235067,-0.088883 0.031118,-0.019245 0.067967,-0.04534 0.1198893,-0.088367 0.05242,-0.04344 0.084867,-0.075715 0.1095542,-0.1028361 0.028706,-0.022971 0.06303,-0.053175 0.1100706,-0.1033529 0.045814,-0.04887 0.073968,-0.084922 0.095085,-0.1147217 0.025742,-0.026384 0.055785,-0.061498 0.096635,-0.1178222 0.040206,-0.055438 0.063987,-0.095162 0.081132,-0.1276408 0.021997,-0.029374 0.047784,-0.067284 0.080615,-0.1271241 0.032935,-0.06003 0.051655,-0.1015397 0.064595,-0.135909 0.018156,-0.031903 0.038461,-0.072867 0.063562,-0.1364258 0.025304,-0.064072 0.038537,-0.108394 0.047026,-0.1441773 0.013915,-0.033883 0.028685,-0.077511 0.045475,-0.1431438 0.016917,-0.066127 0.024413,-0.1108009 0.028422,-0.1472777 0.00968,-0.035433 0.019376,-0.080317 0.027905,-0.1483114 0.00849,-0.06772 0.010414,-0.1136875 0.00982,-0.1503783 0.00514,-0.036352 0.00884,-0.082501 0.00878,-0.1508953 -6.14e-5,-0.0682 -0.00359,-0.1135403 -0.00878,-0.1498616 5.509e-4,-0.036714 -0.00221,-0.082494 -0.010853,-0.1503778 C 4.8719648,2.1307605 4.8631857,2.0862553 4.8536051,2.0509396 4.8496422,2.0143343 4.8414303,1.968639 4.8241496,1.9015947 4.8071665,1.8357054 4.7921839,1.7923311 4.7781576,1.758451 4.7696023,1.7226846 4.756031,1.6788064 4.7306151,1.6147905 4.7056657,1.5519491 4.6851401,1.5112298 4.6670532,1.4793983 4.6540865,1.4449767 4.6352085,1.4028323 4.6019408,1.3424557 4.5690468,1.2827564 4.5438759,1.2446631 4.5218425,1.2153317 4.5046387,1.1828845 4.4810157,1.143571 4.4407104,1.0882077 4.4003021,1.032703 4.3702182,0.99775981 4.3445923,0.97141901 4.3234441,0.94146489 4.2945744,0.90572733 4.2479574,0.85618056 4.2012254,0.80651221 4.1670457,0.77627504 4.1384033,0.75334445 4.1136711,0.72616188 4.0807643,0.69370888 4.0278156,0.64999159 3.9750056,0.60638916 3.9377176,0.58025679 3.9063761,0.56110813 3.8784371,0.53730543 3.8421201,0.50979893 3.7844196,0.47325823 3.7270546,0.43693023 3.6865566,0.41550053 3.6531617,0.40039443 3.6224397,0.38018473 3.5826707,0.35729953 3.5203533,0.32804743 3.4584613,0.29899523 3.4148946,0.28300023 3.3797934,0.27223693 c -0.032976,-0.0160921 -0.075153,-0.03376 -0.1400432,-0.054777 -0.064294,-0.0208238 -0.1086413,-0.0313642 -0.144694,-0.0377238 -0.034807,-0.011987 -0.07933,-0.0237936 -0.1472779,-0.0366903 -0.066281,-0.0125803 -0.1112459,-0.0178316 -0.1477947,-0.019637 -0.036039,-0.007538 -0.082334,-0.0138037 -0.1514117,-0.0180868 -0.04684,-0.002904 -0.085325,-0.004178 -0.1167889,-0.003617 z M 2.498193,0.2241778 C 2.54096,0.254731 2.590604,0.286987 2.6356523,0.3192624 2.6842743,0.292851 2.7373178,0.2672521 2.7834469,0.2422645 c 0.038693,0.035733 0.083902,0.0739267 0.1245401,0.11162109 0.051581,-0.0201335 0.1076233,-0.0393647 0.1565797,-0.0583944 0.033757,0.0401204 0.073019,0.0837624 0.1085207,0.12609049 0.053921,-0.0135958 0.1121039,-0.0254262 0.1632974,-0.0382406 0.028574,0.04422 0.0625,0.0929021 0.092501,0.13952638 0.054954,-0.00667 0.1142685,-0.0113134 0.1663983,-0.01757 0.022746,0.0473311 0.050003,0.0994278 0.073897,0.14934488 0.055382,2.5117e-4 0.1143265,0.00328 0.1669148,0.003617 0.016708,0.0500143 0.038347,0.10494221 0.05581,0.15761311 0.054816,0.007198 0.1128527,0.0168682 0.1648478,0.0237712 0.010288,0.0516579 0.024404,0.10938401 0.03514,0.16381415 0.053456,0.013998 0.1099909,0.031069 0.1607137,0.044442 0.00372,0.052535 0.010116,0.1110178 0.013953,0.1663981 0.051404,0.020623 0.1052298,0.045448 0.1539957,0.065112 -0.00287,0.052506 -0.00359,0.111627 -0.00672,0.166915 0.048487,0.026946 0.099252,0.057569 0.1452107,0.083199 -0.00945,0.051802 -0.017851,0.1103116 -0.027905,0.1648479 0.044747,0.032831 0.090939,0.06959 0.1333251,0.100769 -0.015854,0.050155 -0.031784,0.1073739 -0.048576,0.160197 0.040258,0.038149 0.081748,0.080014 0.1198896,0.116272 -0.021992,0.047706 -0.044441,0.1021665 -0.067696,0.1524455 0.035116,0.042813 0.070066,0.09048 0.1033528,0.1312581 -0.02774,0.044523 -0.056486,0.096306 -0.085783,0.1431437 0.029499,0.04697 0.058386,0.098574 0.0863,0.1431437 -0.033161,0.040735 -0.06833,0.087834 -0.1033529,0.1307413 0.023461,0.050408 0.045514,0.1050779 0.067696,0.1529625 -0.038012,0.036288 -0.078757,0.078136 -0.1188559,0.1162719 0.016854,0.05268 0.032148,0.1101228 0.048059,0.1601967 -0.042293,0.031254 -0.088202,0.068445 -0.1328083,0.101286 0.010145,0.054476 0.018373,0.1130837 0.027905,0.1648478 -0.045907,0.025713 -0.096268,0.056174 -0.144694,0.083199 0.00324,0.055418 0.00425,0.1148458 0.00723,0.1674315 -0.048722,0.019749 -0.1026347,0.043365 -0.1539957,0.064079 -0.00371,0.055344 -0.010299,0.1143121 -0.013953,0.1669147 -0.050935,0.013516 -0.1070483,0.031347 -0.1607137,0.045475 -0.010641,0.054326 -0.024469,0.111796 -0.034623,0.1632977 -0.052158,0.00702 -0.110422,0.016998 -0.1653646,0.024288 -0.017312,0.052434 -0.038235,0.1078362 -0.054777,0.1576131 -0.052497,4.138e-4 -0.1115373,0.00376 -0.1669151,0.00413 C 3.6489551,4.394361 3.6210461,4.4467833 3.5983771,4.4941966 3.5461491,4.4880366 3.4869454,4.4832196 3.431979,4.4766266 3.402078,4.5232576 3.368445,4.5714266 3.339995,4.615636 3.288982,4.602976 3.2309581,4.59082 3.1772141,4.577395 3.1416891,4.619941 3.1024941,4.664187 3.0686937,4.7045191 3.0196947,4.6855591 2.9632636,4.6661831 2.9115973,4.6461251 3.0018053,4.5621481 3.0546038,4.4881683 2.8821413,4.4900622 c -0.162033,0.062144 -0.086581,0.1118428 0.028422,0.1565796 -0.04038,0.037519 -0.084672,0.076091 -0.12299,0.1116211 -0.046311,-0.024982 -0.099531,-0.050592 -0.1483113,-0.076998 -0.044996,0.032375 -0.094701,0.064429 -0.1374593,0.095085 -0.04276,-0.030514 -0.092013,-0.062877 -0.1369426,-0.095085 -0.048652,0.026465 -0.1015215,0.051952 -0.1477946,0.076998 -0.038636,-0.035693 -0.083905,-0.073432 -0.1245402,-0.1111044 -0.051699,0.020202 -0.1074755,0.039305 -0.1565796,0.058394 -0.033972,-0.040413 -0.073836,-0.083964 -0.109554,-0.1266071 -0.053671,0.013507 -0.1113109,0.025503 -0.162264,0.03824 -0.028505,-0.044113 -0.06254,-0.09248 -0.092501,-0.1390097 -0.055069,0.0067 -0.1141213,0.011296 -0.1663981,0.01757 C 1.3824932,4.4484125 1.3552482,4.396347 1.3313395,4.3464066 1.2759578,4.3461553 1.216496,4.3431261 1.1639079,4.3427893 1.1472713,4.2929965 1.1265634,4.2376544 1.1091308,4.1851762 1.0540122,4.1779835 0.99559004,4.1678309 0.94324953,4.1608882 0.93296145,4.1092651 0.91935049,4.0519653 0.90862634,3.9975908 0.85500345,3.9835494 0.79822659,3.9660115 0.74739588,3.9526323 0.74365657,3.90019 0.73726519,3.841443 0.73344323,3.7862342 0.68205583,3.7656182 0.62820273,3.7413016 0.57944745,3.7216386 0.58231882,3.6691305 0.5835545,3.6100138 0.58668217,3.5547238 0.53807945,3.5277382 0.48756343,3.4967124 0.4414714,3.4710081 0.45084752,3.4194739 0.45940274,3.3614264 0.46937666,3.3071937 0.42463676,3.2744057 0.37849903,3.2371648 0.33605145,3.2059078 0.35190336,3.1557539 0.36783691,3.0985258 0.38462731,3.045711 0.34437662,3.007593 0.3029052,2.9652266 0.26473799,2.9289221 c 0.0219336,-0.047635 0.0439909,-0.1023168 0.0671794,-0.1524453 -0.0349882,-0.04271 -0.070205,-0.090139 -0.10335285,-0.1307415 0.0278807,-0.044713 0.056844,-0.096609 0.0862996,-0.1436605 -0.029371,-0.046766 -0.0584883,-0.097646 -0.0862996,-0.1421101 0.0332519,-0.040868 0.0682605,-0.088315 0.10335285,-0.1312582 -0.0232976,-0.050104 -0.045659,-0.1053203 -0.0676961,-0.1529622 0.0380594,-0.036317 0.0786911,-0.078591 0.11885578,-0.1167887 -0.0169095,-0.052862 -0.0326092,-0.1100326 -0.0485758,-0.160197 0.0423777,-0.031299 0.0886097,-0.06837 0.13332518,-0.1012858 -0.0101296,-0.054519 -0.0183635,-0.1126342 -0.0279053,-0.164331 0.0457749,-0.025668 0.0959386,-0.056276 0.14417723,-0.083199 -0.00323,-0.055294 -0.003751,-0.1149153 -0.006718,-0.1674316 0.0486892,-0.019749 0.10270288,-0.043913 0.15399578,-0.064596 0.003737,-0.055382 0.010326,-0.1143773 0.0139526,-0.1669149 0.0508453,-0.013516 0.10720562,-0.030873 0.16071371,-0.044958 0.0106417,-0.0543423 0.0239483,-0.11177591 0.0341065,-0.1632974 0.0522392,-0.007014 0.11080663,-0.0169801 0.16588143,-0.0242879 0.017347,-0.0526055 0.038185,-0.10817979 0.054777,-0.15812989 0.052592,-4.3109e-4 0.1115285,-0.003266 0.1669149,-0.003617 0.023869,-0.0501423 0.051681,-0.10231316 0.074414,-0.14986167 0.052057,0.006136 0.1110505,0.0110167 0.1658814,0.01757 0.029947,-0.0467306 0.063989,-0.0952143 0.092501,-0.13952638 0.051163,0.0126989 0.1089173,0.0252809 0.1627807,0.0387573 0.03552,-0.0425371 0.074728,-0.0868019 0.1085205,-0.12712403 0.049051,0.0189612 0.105449,0.0378136 0.1570964,0.0578776 0.040566,-0.0377618 0.085403,-0.0758258 0.1240234,-0.11162109 0.046258,0.0249331 0.099643,0.0506505 0.1483114,0.0769979 0.044928,-0.032308 0.094274,-0.065012 0.1369419,-0.0956018 z M 2.3612505,0.3197792 c -0.1004368,0.0722249 -0.162386,0.13945717 0.00982,0.15916344 0.1678684,-0.0414002 0.098796,-0.1003631 -0.00982,-0.15916344 z m 0.00982,0.15916344 c -0.032659,0.008054 -0.073443,0.0150715 -0.1255737,0.0217041 -0.051948,0.006609 -0.09303,0.00942 -0.1266073,0.009819 -0.031404,0.0120935 -0.071023,0.0251157 -0.1219563,0.0382405 -0.051066,0.0131591 -0.091675,0.0212574 -0.125057,0.0258382 -0.029546,0.0158333 -0.066737,0.0334585 -0.1152385,0.05271 -0.048799,0.0193697 -0.088454,0.0320914 -0.1209228,0.0408244 -0.027409,0.0195224 -0.062452,0.0412849 -0.1085205,0.0666626 -0.045963,0.0253192 -0.083096,0.0435948 -0.1142049,0.0563273 -0.024737,0.022788 -0.056737,0.0486618 -0.099219,0.0795817 -0.042372,0.0308397 -0.077208,0.0532369 -0.1064534,0.0697632 -0.021699,0.0257413 -0.050018,0.0559106 -0.088367,0.091984 -0.038369,0.036092 -0.070123,0.062594 -0.097152,0.082682 -0.018277,0.028161 -0.04263,0.061438 -0.0759643,0.1018026 C 0.9125032,1.2572412 0.8842484,1.2876632 0.8600509,1.3109332 0.8454316,1.3412992 0.82524,1.3774642 0.7970057,1.4220375 0.7688745,1.4664485 0.744779,1.4997475 0.7236252,1.5259072 0.7129273,1.5578092 0.6979177,1.5961242 0.6755661,1.6437294 0.6533085,1.6911344 0.6332783,1.7278214 0.6156214,1.7563841 0.6090114,1.7894141 0.5987929,1.8292311 0.5825485,1.879374 0.566357,1.929354 0.5510484,1.96764 0.5370732,1.9982297 0.5346272,2.0317167 0.5297862,2.0728767 0.52002,2.1243203 0.510136,2.1763823 0.4996501,2.2166393 0.4895309,2.2488604 c 0.001745,0.033463 0.001678,0.074558 -0.00155,0.1266073 -0.003243,0.052301 -0.008046,0.093542 -0.0139527,0.1266072 0.006012,0.033138 0.011113,0.074024 0.0144694,0.1266073 0.003353,0.052536 0.003811,0.094022 0.002067,0.1276409 0.0100458,0.032024 0.0196046,0.072125 0.0294556,0.1235064 0.009911,0.051696 0.0156028,0.093037 0.0180867,0.1266074 0.0139945,0.030527 0.0287258,0.068539 0.0449585,0.1183391 0.016166,0.049595 0.0274146,0.089635 0.0341064,0.122473 0.0177955,0.028602 0.0369392,0.065499 0.0594279,0.1131716 0.0223303,0.047338 0.0383371,0.085506 0.0490926,0.1173054 0.0212065,0.026125 0.0451585,0.059493 0.0733805,0.1038695 0.0282112,0.04436 0.0483789,0.080829 0.0630453,0.1111044 0.0243155,0.023263 0.0522178,0.053557 0.0857829,0.094051 0.0338062,0.040785 0.0586198,0.073991 0.0769979,0.1023194 0.026881,0.01998 0.058626,0.04654 0.096635,0.082165 0.038367,0.035959 0.067146,0.065785 0.088884,0.091468 0.029277,0.016474 0.064021,0.038997 0.1064534,0.069763 0.042451,0.03078 0.074458,0.05687 0.099219,0.079582 0.031207,0.012681 0.067996,0.030464 0.1142049,0.05581 0.046039,0.025253 0.08161,0.046697 0.1090372,0.066146 0.032495,0.00867 0.071543,0.022048 0.1204061,0.041341 0.048777,0.019259 0.086121,0.03635 0.1157552,0.052193 0.033364,0.00453 0.074045,0.012791 0.125057,0.025838 0.050503,0.012917 0.090135,0.024752 0.1214396,0.03669 0.033667,3.095e-4 0.074884,0.00379 0.127124,0.010335 0.052112,0.00653 0.092909,0.014231 0.1255738,0.022221 0.033442,-0.00391 0.074467,-0.00667 0.127124,-0.00672 0.052638,-4.73e-5 0.094197,0.00183 0.1276408,0.00568 0.032576,-0.008 0.073734,-0.015108 0.1255736,-0.021704 0.052232,-0.00665 0.093457,-0.00945 0.1271241,-0.00982 0.031292,-0.012001 0.070412,-0.024708 0.1209228,-0.037724 0.050478,-0.013007 0.091356,-0.020703 0.1245401,-0.025321 0.029714,-0.016014 0.067077,-0.033701 0.1162722,-0.053227 0.048603,-0.019292 0.088008,-0.032086 0.1204061,-0.040824 0.02742,-0.019537 0.062921,-0.041775 0.1090372,-0.067179 0.046267,-0.025487 0.082982,-0.043588 0.114205,-0.056327 0.02468,-0.022684 0.057025,-0.048871 0.099219,-0.079582 0.042685,-0.031067 0.0776,-0.05373 0.1069703,-0.07028 0.021623,-0.02555 0.049434,-0.055301 0.087333,-0.090951 0.038049,-0.035791 0.070263,-0.062121 0.097152,-0.082165 0.01832,-0.028334 0.042802,-0.061539 0.076481,-0.1023194 0.03336,-0.040394 0.061571,-0.071291 0.085783,-0.094568 0.014611,-0.030301 0.034916,-0.06618 0.063045,-0.1105874 0.028062,-0.044303 0.051746,-0.078249 0.072864,-0.1043866 0.010698,-0.031901 0.026227,-0.069704 0.048576,-0.1173054 0.022488,-0.047895 0.04215,-0.085012 0.059945,-0.1136883 0.00663,-0.032844 0.017003,-0.072351 0.033073,-0.1219562 0.016201,-0.050011 0.030976,-0.088775 0.044958,-0.1193726 0.00245,-0.033488 0.00781,-0.074646 0.01757,-0.1260904 0.00977,-0.05144 0.019976,-0.091454 0.029972,-0.1235067 -0.00181,-0.033619 -0.00119,-0.075088 0.00207,-0.1276408 0.00326,-0.052632 0.008,-0.093963 0.013953,-0.1271241 -0.00594,-0.033 -0.011143,-0.073466 -0.01447,-0.1255737 -0.00335,-0.052536 -0.00382,-0.094022 -0.00207,-0.1276408 -0.01006,-0.032032 -0.019594,-0.072056 -0.029457,-0.1234983 -0.0098,-0.051137 -0.015556,-0.092186 -0.018087,-0.1255738 C 4.4482581,1.9649517 4.4333893,1.9262229 4.4169391,1.8757565 4.4005141,1.8253661 4.3894897,1.7853623 4.3828328,1.7522498 4.3651906,1.7237743 4.3456384,1.6877608 4.323405,1.6406288 4.3010747,1.5932913 4.2855846,1.5551228 4.2748291,1.5233232 4.2536227,1.4971978 4.2296705,1.4633137 4.2014485,1.4189368 4.1731873,1.3744985 4.1525566,1.3386564 4.1378865,1.3083493 4.1136348,1.2851167 4.0855334,1.2546286 4.0521036,1.2142982 4.0188587,1.1741905 3.9944451,1.1410586 3.9761393,1.1130124 3.9490127,1.092953 3.9170486,1.0659707 3.8784708,1.0298133 3.8401038,0.99385401 3.8118413,0.96402816 3.7901042,0.93834609 3.7608172,0.92187028 3.7261068,0.89936693 3.6836507,0.8685829 3.6412758,0.83785779 3.6091781,0.81168606 3.5844319,0.78900121 3.5532169,0.77631986 3.51594,0.75854841 3.4697102,0.73319064 3.4233708,0.70777267 3.3881667,0.68606948 3.360673,0.66652805 3.3282875,0.65784749 3.2893416,0.64487616 3.2407837,0.62570366 3.1920612,0.6064662 3.1546483,0.58933888 3.1250285,0.57351047 3.0916635,0.56898447 3.0504675,0.56071947 2.9994549,0.54767227 2.9484189,0.53461917 2.9089439,0.52251917 2.8774983,0.51046527 2.8439213,0.51012644 2.8033643,0.50716227 2.751408,0.50064627 2.698953,0.49406827 2.657562,0.48647687 2.6248006,0.47842537 c -0.03329,0.003841 -0.074457,0.006154 -0.1266073,0.006201 -0.052422,4.723e-5 -0.093745,-0.001865 -0.127124,-0.005684 z m 0.2537313,-5.1678e-4 c 0.1727827,-0.0199381 0.1114867,-0.0870626 0.010852,-0.15916341 -0.108626,0.059006 -0.1782667,0.1180184 -0.010852,0.15916341 z m 0.2526977,0.0320394 c 0.1731336,0.001747 0.1209458,-0.0726755 0.030489,-0.1565796 -0.1151228,0.044936 -0.1917657,0.0947585 -0.030489,0.1565796 z m 0.2475302,0.0630452 c 0.1712529,0.0232298 0.127508,-0.0571995 0.048059,-0.1519287 -0.1196451,0.0301678 -0.2007325,0.0703429 -0.048059,0.1519287 z m 0.2356445,0.0930176 c 0.1676681,0.0449414 0.1350598,-0.039774 0.068213,-0.14366047 -0.1226463,0.0148852 -0.2086907,0.0438138 -0.068213,0.14366047 z m 0.2237589,0.12247316 c 0.1598914,0.0649571 0.1380845,-0.0229386 0.08475,-0.13435875 -0.1235588,-5.6033e-4 -0.2125181,0.0172337 -0.08475,0.13435875 z M 3.7901042,0.93834609 C 3.9407759,1.0231092 3.9306966,0.93286384 3.8919066,0.81587293 3.7692614,0.79976795 3.6783447,0.80630594 3.7901042,0.93834609 Z M 3.9761393,1.1130124 C 4.1144503,1.2152906 4.115737,1.1243459 4.0918946,1.0034583 3.9720809,0.97208355 3.8810018,0.96725275 3.9761393,1.1130124 Z m 0.1617472,0.1953369 c 0.1250874,0.1198304 0.1372119,0.029174 0.1286743,-0.094051 -0.114564,-0.045962 -0.2038733,-0.061302 -0.1286743,0.094051 z m 0.1369426,0.2149739 c 0.1088651,0.1341163 0.1320392,0.046231 0.1390097,-0.076998 -0.108053,-0.060048 -0.194558,-0.087234 -0.1390097,0.076998 z m 0.1080037,0.2289266 c 0.091524,0.1477226 0.1259096,0.063644 0.1483114,-0.057878 -0.099477,-0.072987 -0.1821913,-0.1106514 -0.1483114,0.057878 z m 0.079582,0.243396 c 0.071873,0.1558681 0.1161407,0.077148 0.153479,-0.040308 -0.089796,-0.085092 -0.1666269,-0.1331695 -0.153479,0.040308 z m 0.047542,0.2490804 C 4.561893,2.4101698 4.6161455,2.3363546 4.6680867,2.2240557 4.5899333,2.128772 4.5188934,2.072508 4.5099568,2.2447262 Z m 0.016536,0.2532145 c 0.030759,0.1709957 0.093536,0.1054354 0.1591638,5.168e-4 C 4.6199658,2.3938593 4.5570096,2.3281271 4.5264928,2.4979407 Z m -0.01602,0.2547649 c 0.00927,0.1725158 0.079969,0.1153951 0.1581298,0.019637 C 4.6165493,2.6604967 4.5620136,2.5874413 4.5104728,2.7527056 Z M 4.4629314,3.0023027 C 4.4503087,3.175124 4.5279025,3.1267336 4.6174438,3.0415769 4.5798254,2.9239977 4.5347494,2.8451412 4.4629314,3.0023027 Z M 4.3849,3.2436315 C 4.350497,3.4139782 4.4331113,3.3763754 4.5326944,3.3030596 4.5101394,3.1819495 4.4755457,3.0975569 4.3849,3.2436315 Z M 4.2763793,3.4746252 c -0.054937,0.1638191 0.031693,0.1366597 0.1395264,0.076481 -0.0072,-0.1232694 -0.03076,-0.2111008 -0.1395264,-0.076481 z m -0.1359088,0.214974 c -0.075071,0.1556842 0.014136,0.1392131 0.1286742,0.093018 0.00824,-0.1229646 -0.00399,-0.2128901 -0.1286742,-0.093018 z M 3.9782063,3.8864865 C 3.8848539,4.0308685 3.9753602,4.0263682 4.0944782,3.9950069 4.1182838,3.8734761 4.1175512,3.7826203 3.9782063,3.8864865 Z M 3.7937216,4.0596025 C 3.6813152,4.1924271 3.7719077,4.198858 3.8944905,4.1825925 3.933193,4.0653697 3.9439012,3.9749793 3.7937216,4.0596025 Z m -0.206189,0.1498616 c -0.128061,0.1177047 -0.038637,0.135713 0.085266,0.1348756 0.05312,-0.1114846 0.074333,-0.1999935 -0.085266,-0.1348756 z M 3.3642904,4.3329708 C 3.2237424,4.4331143 3.3094896,4.4619377 3.4319864,4.4766314 3.4987273,4.3725485 3.5318251,4.2877898 3.3642904,4.3329708 Z M 3.1276121,4.427022 C 2.9761318,4.5086587 3.0574952,4.5474929 3.1772215,4.5774003 3.2564558,4.4825059 3.299771,4.4030624 3.1276121,4.427022 Z M 2.6294515,4.52159 C 2.4608671,4.563001 2.5305265,4.6224005 2.6392715,4.68127 2.7394699,4.609177 2.8009876,4.5413385 2.6294515,4.52159 Z M 2.3746867,4.52262 C 2.203253,4.542679 2.2645714,4.609371 2.3648667,4.6812665 2.4732595,4.6223045 2.5425899,4.5636902 2.3746867,4.52262 Z M 2.1219889,4.4900672 C 1.949365,4.4884772 2.0020275,4.5632572 2.0925329,4.6471635 2.2076466,4.6021815 2.2843595,4.5519855 2.1219889,4.4900672 Z M 1.8754923,4.4275387 C 1.7046107,4.4043594 1.747278,4.4844895 1.8263997,4.5789508 1.9463146,4.5487719 2.0282632,4.5092124 1.8754923,4.4275387 Z M 1.639331,4.3340043 C 1.4721729,4.2893843 1.5047237,4.3742683 1.571635,4.4781816 1.6941914,4.4632616 1.7803882,4.4340316 1.639331,4.3340043 Z M 1.4160889,4.212048 C 1.2561239,4.147046 1.2779814,4.234951 1.3313399,4.3464066 1.4548556,4.3469668 1.5436622,4.3290636 1.4160889,4.212048 Z M 1.2104167,4.0627032 c -0.1510111,-0.084973 -0.1402606,0.00514 -0.1012859,0.122473 0.1221404,0.015939 0.2127412,0.00921 0.1012859,-0.122473 z M 1.0248983,3.8890704 C 0.88538833,3.7853754 0.88471515,3.8763537 0.90862634,3.9975908 1.0280441,4.0288603 1.1185168,4.0333752 1.0248983,3.8890704 Z M 0.86211754,3.6926998 C 0.73733028,3.5733169 0.72492201,3.6631427 0.73344323,3.7862342 0.84804687,3.8322117 0.93745672,3.8482259 0.86211754,3.6926998 Z M 0.72569176,3.4777259 C 0.61682779,3.3436109 0.5936528,3.4314973 0.58668217,3.5547238 0.69453946,3.6146091 0.78116793,3.6417445 0.72569176,3.4777259 Z M 0.61717124,3.2472489 C 0.52597315,3.1006687 0.49172752,3.1856616 0.46937666,3.3071937 0.56891185,3.3801388 0.65181809,3.4172701 0.61717124,3.2472489 Z M 0.53810631,3.0064368 c -0.0722006,-0.1574948 -0.11604466,-0.078477 -0.153479,0.039274 0.0894838,0.084742 0.16620517,0.1327208 0.153479,-0.039274 z M 0.49056399,2.756323 C 0.43862591,2.5907575 0.38386277,2.6641819 0.33191734,2.7764768 0.41026319,2.8721137 0.4816097,2.9288964 0.49056399,2.756323 Z M 0.47402753,2.5020748 c -0.0307797,-0.1696512 -0.0937376,-0.1045097 -0.15916341,0 0.0657726,0.1047269 0.12869019,0.1706036 0.15916341,0 z m 0.0155029,-0.2532145 c -0.00904,-0.1733692 -0.0794848,-0.1157614 -0.15761314,-0.020154 0.051991,0.111813 0.10612006,0.1841155 0.15761314,0.020154 z m 0.0475424,-0.2506307 c 0.0126241,-0.1728265 -0.0644538,-0.1244312 -0.15399578,-0.039274 0.0376266,0.1176262 0.0821503,0.1965368 0.15399578,0.039274 z M 0.61562097,1.756384 C 0.64945546,1.5873056 0.56716764,1.6243467 0.46782636,1.6974728 0.49042556,1.8191043 0.52443616,1.9038887 0.61562097,1.756384 Z M 0.7236247,1.5259071 C 0.7785647,1.362071 0.6919546,1.3897453 0.58409833,1.4499431 c 0.007197,0.1231991 0.0308982,0.2103008 0.13952637,0.075964 z m 0.13642578,-0.214974 c 0.0747577,-0.1552816 -0.0142593,-0.1391538 -0.1286743,-0.093018 -0.008317,0.1232614 0.00375,0.2131568 0.1286743,0.093018 z M 1.0217977,1.1150794 C 1.1160617,0.96983336 1.0253677,0.97463377 0.9060425,1.0060421 0.8822883,1.1273444 0.8831537,1.2181249 1.0217977,1.1150794 Z M 1.2073161,0.94041315 C 1.3185408,0.80846721 1.2283331,0.8022285 1.1060303,0.81845677 1.0673882,0.93563887 1.0566424,1.0255575 1.2073161,0.94041315 Z M 1.4129883,0.79106824 C 1.5401232,0.67395212 1.4511823,0.65592807 1.3277223,0.65670955 1.2746813,0.7681359 1.2529213,0.85658183 1.4129883,0.79106824 Z M 1.6357137,0.66807835 C 1.776586,0.56774052 1.6908207,0.53909506 1.5680177,0.52441788 1.5014497,0.6282921 1.4687737,0.71298002 1.6357137,0.66807835 Z M 1.871875,0.57454401 C 2.0248778,0.49255081 1.943108,0.45362435 1.823299,0.42364883 1.744226,0.51834413 1.7010482,0.59798546 1.871875,0.57454401 Z m 0.2470133,-0.0640788 c 0.1612471,-0.0620963 0.085139,-0.11134474 -0.029972,-0.15606284 -0.090324,0.0840789 -0.1431738,0.15812066 0.029972,0.15606284 z m 0.4314982,-0.009302 A 2,2 0 0 1 4.5001382,2.5310137 2,2 0 0 1 2.4697713,4.5004023 2,2 0 0 1 0.50038252,2.4700355 2,2 0 0 1 2.4501342,0.50271377 V 1.4959347 h 0.1002523 z" />
  </g>
</svg>
